<?xml version="1.0" encoding="utf-8"?>
<!-- Svg Vector Icons : http://www.onlinewebfonts.com/icon -->
<!DOCTYPE svg PUBLIC "-//W3C//DTD SVG 1.1//EN" "http://www.w3.org/Graphics/SVG/1.1/DTD/svg11.dtd">
<svg version="1.1" xmlns="http://www.w3.org/2000/svg" xmlns:xlink="http://www.w3.org/1999/xlink" x="0px" y="0px" viewBox="0 0 1000 1000" enable-background="new 0 0 1000 1000" xml:space="preserve" fill="currentColor">
<metadata> Svg Vector Icons : http://www.onlinewebfonts.com/icon </metadata>
<g><g transform="translate(0.000000,511.000000) scale(0.100000,-0.100000)"><path d="M4847.5,5002.6c-520.8-66.4-1087.6-257.9-1863.8-630.6L2639,4206l-255.3,12.8c-229.8,10.2-265.5,5.1-370.2-48.5c-91.9-46-125.1-84.2-163.4-178.7c-71.5-176.2-33.2-280.8,188.9-515.7c145.5-153.2,206.8-242.5,331.9-503c183.8-380.4,311.5-763.4,395.7-1184.6c94.5-459.6,102.1-431.5-130.2-411.1c-107.2,7.7-329.3,46-492.7,81.7c-602.5,135.3-801.7,76.6-855.3-257.9c-25.5-155.7,28.1-275.7,349.8-745.5c395.7-582.1,554-898.7,594.9-1205.1c15.3-122.6,12.8-135.3-71.5-227.2l-86.8-97l5.1-380.4c7.7-518.3,5.1-497.9,46-497.9c53.6,0,168.5-145.5,255.3-331.9c71.5-150.6,79.2-188.9,76.6-408.5c-2.6-211.9-15.3-275.7-97-510.6c-222.1-620.4-252.8-727.7-265.5-931.9c-25.5-474.9,150.6-765.9,372.7-610.2c91.9,63.8,109.8,140.4,66.4,280.8c-68.9,214.5-35.7,426.4,137.9,903.8c214.5,597.4,255.3,801.7,209.4,1087.6c-15.3,97-61.3,250.2-102.1,339.6c-43.4,89.4-76.6,165.9-76.6,171c0,7.7,176.2,7.7,390.6,5.1l388.1-7.7l7.7-722.5l5.1-720h204.2h204.3v727.6v727.6l1233.2-5.1l1230.6-7.7l7.7-720l5.1-722.5h204.3h204.2v727.6v727.6h385.5c298.7,0,383-7.7,372.8-30.6c-240-543.8-245.1-771-28.1-1386.3c257.9-730.2,257.9-735.3,199.2-1182.1c-12.8-91.9-5.1-120,43.4-173.6c140.4-148.1,324.2-33.2,383,237.4c63.8,314,23,523.4-247.6,1284.2c-84.3,232.3-97,298.7-97,497.9c0,181.3,10.2,260.4,58.7,377.9c74,183.8,204.2,360,278.3,370.2c56.2,7.7,56.2,15.3,56.2,421.3c0,492.8-12.8,523.4-268.1,686.8c-186.4,120-181.3,97-76.6,408.5C7924-216,8036.3-19.4,8383.6,498.9c160.8,237.4,303.8,477.4,316.6,531c53.6,196.6-23,393.2-183.8,467.2c-145.5,63.8-227.2,61.3-694.5-28.1c-219.6-40.8-457-76.6-525.9-76.6c-150.6,0-150.6-5.1-71.5,398.3c71.5,370.2,222.1,822.1,393.2,1177c114.9,234.9,178.7,331.9,321.7,482.5c97,102.1,188.9,219.6,204.2,257.9c68.9,181.3-5.1,405.9-158.3,467.2c-53.6,23-153.2,28.1-334.5,17.9l-257.9-15.3l-257.9,160.8c-480,301.3-921.7,497.9-1355.7,605.1C5577.7,4992.3,5041.5,5025.5,4847.5,5002.6z M5567.5,4571.1c426.4-74,911.5-286,1447.6-633.2l245.1-158.3l211.9,2.6c125.1,0,222.1,12.8,240,30.6c17.9,17.9,40.8,30.6,53.6,30.6s-43.4-66.4-127.7-145.5c-360-349.8-740.4-1332.7-862.9-2228.9c-28.1-204.2-48.5-571.9-56.2-1013.6c-12.8-620.4-17.9-697-56.2-697c-23,0-130.2,17.9-240,38.3C5817.7-88.4,5036.4-39.8,4451.7-85.8c-334.5-25.5-906.4-104.7-1072.3-145.5c-56.2-12.8-56.2-12.8-71.5,620.4c-30.6,1133.6-143,1764.2-439.1,2474c-173.6,416.2-308.9,643.4-482.5,824.7c-130.2,135.3-145.5,158.3-91.9,148.1c35.7-7.7,148.1-23,247.7-33.2l186.4-17.9l273.2,143C4119.8,4499.6,4883.2,4691.1,5567.5,4571.1z M2166.7,1035c148.1-30.6,365.1-58.7,485.1-66.4l217-10.2l15.3-247.7c10.2-137.9,17.9-428.9,17.9-645.9l2.6-395.7l-140.4-112.3c-76.6-61.3-143-107.2-145.5-102.1c-5.1,5.1-28.1,79.2-53.6,163.4c-74,245.1-301.3,658.7-600,1085.1c-150.6,217-273.2,403.4-268.1,411.1C1707.1,1132,1740.3,1126.9,2166.7,1035z M8304.4,1106.5c-10.2-17.9-107.2-158.3-214.5-314c-380.4-543.8-569.3-885.9-656.2-1179.5l-45.9-158.3l-145.5,79.2l-148.1,79.1v551.5c0,303.8,7.7,610.2,15.3,681.7l15.3,130.2l247.7,17.9c135.3,7.7,365.1,43.4,513.2,76.6C8197.2,1142.2,8332.5,1152.4,8304.4,1106.5z M5363.2-496.9c234.9-12.8,510.6-35.7,612.7-51.1c561.7-81.7,1233.2-255.3,811.9-209.4c-224.7,23-2902.9,23-3382.9-2.5c-418.7-20.4-441.7-2.6-97,84.2c411,102.1,908.9,166,1565.1,199.1C4908.7-473.9,5128.3-484.1,5363.2-496.9z M6507-1135.1c474.9-25.5,1082.5-84.3,1215.3-117.4c56.2-15.3,61.3-28.1,61.3-166v-150.6l-2647.6,5.1l-2650.1,7.7l-7.7,142.9c-5.1,112.4,2.5,148.1,33.2,160.9c74,28.1,635.7,94.5,983,114.9C4002.4-1107.1,5932.6-1107.1,6507-1135.1z"/></g></g>
</svg>